# xmcd
#
# Track frame offsets:
#	150
#	16451
#	32815
#	45940
#	59733
#	75622
#	92776
#	116473
#	128625
#	142516
#	156320
#	179594
#	196210
#	212546
#	227318
#	250479
#	268549
#	284077
#	306858
#	319965
#	336582
#
# Disc length: 4756 seconds
#
# Revision: 1
# Processed by: cddbd v1.5.2PL0 Copyright (c) Steve Scherf et al.
# Submitted via: audiograbber 1.83.01
#
DISCID=2e129215
DTITLE=10cc - Look hear
DYEAR=1900
DGENRE=
TTITLE0=johnny,don`t do it
TTITLE1=sand in my face
TTITLE2=donna
TTITLE3=Òhe dean and i
TTITLE4=headline hustler
TTITLE5=speed kills
TTITLE6=rubber bullets
TTITLE7=Òhe hospital song
TTITLE8=ships don`t dissappear in the night
TTITLE9=fresh air for my momma
TTITLE10=one two five
TTITLE11=welkome to the world
TTITLE12=how`m i ever gonna say goodbye
TTITLE13=don`t send we back
TTITLE14=i took you home
TTITLE15=it doesn`t matter at all
TTITLE16=dressed to kill
TTITLE17=lovers anonymous
TTITLE18=i hate to eat alone
TTITLE19=strange lover
TTITLE20=l.a.inflatable
EXTD=
EXTT0=
EXTT1=
EXTT2=
EXTT3=
EXTT4=
EXTT5=
EXTT6=
EXTT7=
EXTT8=
EXTT9=
EXTT10=
EXTT11=
EXTT12=
EXTT13=
EXTT14=
EXTT15=
EXTT16=
EXTT17=
EXTT18=
EXTT19=
EXTT20=
PLAYORDER=
